<svg width="140" height="121" viewBox="0 0 140 121" fill="none" xmlns="http://www.w3.org/2000/svg">
<path d="M70 62.6997C90.0298 62.6997 106.27 48.664 106.27 31.3499C106.27 14.0407 90.0298 0 70 0C49.9674 0 33.7304 14.0407 33.7304 31.3499C33.7304 48.664 49.9674 62.6997 70 62.6997Z" fill="black"/>
<path d="M116.45 92.9015C114.831 84.518 106.606 72.9297 100.713 67.5045C99.1192 66.0365 96.3523 66.6471 95.3799 67.1673C87.9862 71.1074 79.3067 73.4061 69.9997 73.4061C60.693 73.4061 52.0135 71.1074 44.6198 67.1673C43.6477 66.6471 40.8805 66.0365 39.2864 67.5045C33.3938 72.9297 25.1694 84.518 23.5498 92.9015C19.5707 113.542 45.0835 121 70 121C94.9164 121 120.429 113.542 116.45 92.9015Z" fill="black"/>
</svg>
