<svg width="123" height="123" viewBox="0 0 123 123" fill="none" xmlns="http://www.w3.org/2000/svg">
<g clip-path="url(#clip0_1_160)">
<path d="M61.5 3.84375C29.7891 3.84375 3.84375 29.7891 3.84375 61.5C3.84375 93.2109 29.7891 119.156 61.5 119.156C93.2109 119.156 119.156 93.2109 119.156 61.5C119.156 29.7891 93.2109 3.84375 61.5 3.84375Z" fill="white"/>
<path d="M61.5 0C27.4828 0 0 27.4828 0 61.5C0 95.5172 27.4828 123 61.5 123C95.5172 123 123 95.5172 123 61.5C123 27.4828 95.5172 0 61.5 0ZM61.5 119.156C29.7891 119.156 3.84375 93.2109 3.84375 61.5C3.84375 29.7891 29.7891 3.84375 61.5 3.84375C93.2109 3.84375 119.156 29.7891 119.156 61.5C119.156 93.2109 93.2109 119.156 61.5 119.156Z" fill="black"/>
<path d="M14.4141 61.5C14.4141 67.6834 15.632 73.8063 17.9983 79.519C20.3646 85.2317 23.8329 90.4225 28.2052 94.7948C32.5775 99.1671 37.7683 102.635 43.481 105.002C49.1937 107.368 55.3166 108.586 61.5 108.586C67.6834 108.586 73.8063 107.368 79.519 105.002C85.2317 102.635 90.4225 99.1671 94.7948 94.7948C99.1671 90.4225 102.635 85.2317 105.002 79.519C107.368 73.8063 108.586 67.6834 108.586 61.5C108.586 55.3166 107.368 49.1937 105.002 43.481C102.635 37.7683 99.1671 32.5775 94.7948 28.2052C90.4225 23.8329 85.2317 20.3646 79.519 17.9983C73.8063 15.632 67.6834 14.4141 61.5 14.4141C55.3166 14.4141 49.1937 15.632 43.481 17.9983C37.7683 20.3646 32.5775 23.8329 28.2052 28.2052C23.8329 32.5775 20.3646 37.7683 17.9983 43.481C15.632 49.1937 14.4141 55.3166 14.4141 61.5Z" fill="#9DE8F7"/>
<path d="M94.1719 59.5781H63.4219V28.8281H59.5781V59.5781H28.8281V63.4219H59.5781V94.1719H63.4219V63.4219H94.1719V59.5781Z" fill="#1A1718"/>
</g>
<defs>
<clipPath id="clip0_1_160">
<rect width="123" height="123" fill="white"/>
</clipPath>
</defs>
</svg>
